<svg xmlns="http://www.w3.org/2000/svg" viewBox="0 0 512 512">
  <rect width="512" height="512" fill="#1a1a1a" rx="64"/>
  <g transform="translate(256,256)">
    <!-- Three trefoil blades -->
    <path d="M0,-40 A80,80 0 0,1 69.3,40 L34.6,20 A40,40 0 0,0 0,-40Z" fill="#BFFF00"/>
    <path d="M69.3,40 A80,80 0 0,1 -69.3,40 L-34.6,20 A40,40 0 0,0 34.6,20Z" fill="#BFFF00"/>
    <path d="M-69.3,40 A80,80 0 0,1 0,-40 L0,-40 A40,40 0 0,0 -34.6,20Z" fill="#BFFF00"/>
    <!-- Center circle -->
    <circle cx="0" cy="0" r="20" fill="#1a1a1a"/>
  </g>
</svg>
