<svg xmlns="http://www.w3.org/2000/svg" viewBox="0 0 512 512">
  <rect width="512" height="512" rx="80" fill="#1a1a1a"/>
  <g transform="translate(256,250)">
    <!-- Outer ring -->
    <circle cx="0" cy="0" r="155" fill="none" stroke="#ADFF2F" stroke-width="18"/>
    <!-- Three trefoil blades -->
    <path d="M0,-150 A75,75 0 0,1 65,-75 L32,-37 A37,37 0 0,0 0,-75Z" fill="#ADFF2F"/>
    <path d="M0,-150 A75,75 0 0,0 -65,-75 L-32,-37 A37,37 0 0,1 0,-75Z" fill="#ADFF2F"/>
    <path d="M65,-75 A75,75 0 0,1 65,75 L32,37 A37,37 0 0,0 32,-37Z" fill="#ADFF2F"/>
    <path d="M65,75 A75,75 0 0,1 -65,75 L-32,37 A37,37 0 0,0 32,37Z" fill="#ADFF2F"/>
    <path d="M-65,75 A75,75 0 0,1 -65,-75 L-32,-37 A37,37 0 0,0 -32,37Z" fill="#ADFF2F"/>
    <path d="M-65,-75 A75,75 0 0,0 -65,75 L-32,37 A37,37 0 0,1 -32,-37Z" fill="#ADFF2F"/>
    <!-- Center circle -->
    <circle cx="0" cy="0" r="25" fill="#1a1a1a"/>
  </g>
</svg>
